<svg width="54" height="54" viewBox="0 0 54 54" fill="none" xmlns="http://www.w3.org/2000/svg">
<path d="M14.3047 52.1502C13.9147 51.9102 13.7547 51.5602 13.7647 51.1002C13.7847 50.1002 13.7847 49.1002 13.7647 48.1102C13.7547 47.5802 13.9747 47.2402 14.4247 46.9802C16.8847 45.5202 19.3247 44.0302 21.7947 42.5802C22.1747 42.3602 22.2847 42.1402 22.1847 41.7002C21.9347 40.5802 21.7547 39.4502 21.5247 38.3202C21.4347 37.8602 21.3847 37.4002 21.3847 36.9302C21.3847 35.0002 21.3847 33.0702 21.3847 31.1402C21.3847 30.5002 21.3647 30.4902 20.7847 30.7102C14.7147 33.0002 8.6247 35.2802 2.5347 37.5602C1.5147 37.9402 1.0047 37.5902 0.994701 36.5002C0.994701 34.9902 1.0047 33.4702 0.984701 31.9602C0.974701 31.4102 1.1947 31.0502 1.6747 30.8002C2.4447 30.4102 3.1847 29.9602 3.9647 29.5802C4.2947 29.4102 4.4147 29.1902 4.3947 28.8302C4.3747 28.3702 4.3847 27.9002 4.3947 27.4302C4.4247 26.2402 5.1947 25.2702 6.3547 24.9602C7.4447 24.6602 8.6547 25.1302 9.2247 26.1502C9.4547 26.5702 9.6447 26.5402 9.9847 26.3302C10.5447 26.0002 11.1147 25.7002 11.6947 25.4002C11.9647 25.2602 12.0847 25.0802 12.0747 24.7702C12.0547 24.2402 12.0647 23.7102 12.0747 23.1702C12.0947 22.0102 12.8747 21.0002 13.9647 20.7002C15.0847 20.3902 16.3247 20.8602 16.8747 21.8902C17.1247 22.3602 17.3247 22.3602 17.7447 22.1202C18.7247 21.5502 19.7047 20.9902 20.7247 20.5002C21.2647 20.2402 21.4047 19.9002 21.3947 19.3402C21.3647 16.6102 21.3747 13.8802 21.3847 11.1602C21.4047 8.50019 21.9347 5.95019 23.0247 3.51019C23.5447 2.35019 24.3147 1.49019 25.5547 1.13019C27.2347 0.640186 29.0547 1.48019 29.8547 3.11019C30.9847 5.43019 31.6247 7.86019 31.7047 10.4502C31.8047 13.4802 31.7347 16.5002 31.7447 19.5302C31.7447 19.9702 31.8847 20.2202 32.2847 20.4202C33.3947 20.9902 34.4847 21.5902 35.5747 22.2002C35.8847 22.3702 36.0147 22.3202 36.1847 22.0102C36.7947 20.9002 37.9547 20.3902 39.1247 20.6802C40.2847 20.9702 41.0647 22.0002 41.0747 23.2602C41.0747 23.7602 41.0947 24.2602 41.0747 24.7602C41.0647 25.0702 41.1847 25.2502 41.4547 25.3902C42.0947 25.7202 42.7147 26.0602 43.3447 26.4102C43.5847 26.5502 43.7047 26.5202 43.8547 26.2702C44.5447 25.1102 45.6847 24.6302 46.8547 24.9702C48.0547 25.3102 48.7647 26.3002 48.7647 27.6302C48.7647 27.9102 48.8047 28.2002 48.7547 28.4802C48.6447 29.1502 48.9347 29.5202 49.5247 29.7802C50.1747 30.0702 50.7847 30.4502 51.4247 30.7802C51.7147 30.9302 51.9547 31.1202 52.1247 31.4002C52.1247 33.3302 52.1247 35.2602 52.1247 37.1902C51.6447 37.7702 51.3747 37.8502 50.6547 37.5802C44.5547 35.2902 38.4547 33.0002 32.3547 30.7202C31.7847 30.5102 31.7647 30.5202 31.7647 31.1202C31.7647 33.0802 31.7647 35.0402 31.7647 37.0102C31.7647 37.4402 31.7247 37.8702 31.6347 38.3002C31.4147 39.4402 31.2247 40.5902 30.9647 41.7202C30.8647 42.1602 30.9947 42.3702 31.3647 42.5902C33.8147 44.0402 36.2447 45.5102 38.6847 46.9702C39.1647 47.2502 39.4047 47.6102 39.3847 48.1802C39.3547 49.1402 39.3647 50.1102 39.3847 51.0702C39.3947 51.5402 39.2647 51.9202 38.8447 52.1702C38.5147 52.1702 38.1747 52.1702 37.8447 52.1702C35.0347 51.6902 32.2347 51.2102 29.4247 50.7202C29.2447 50.6902 29.1047 50.7402 28.9947 50.9002C28.5847 51.5502 27.9547 51.9102 27.2647 52.1702C26.7947 52.1702 26.3347 52.1702 25.8647 52.1702C25.1747 51.9002 24.5447 51.5502 24.1347 50.8902C24.0047 50.6802 23.8147 50.7002 23.6047 50.7402C22.4947 50.9302 21.3847 51.1102 20.2747 51.3002C18.6147 51.5902 16.9447 51.8802 15.2847 52.1702C14.9747 52.1502 14.6347 52.1502 14.3047 52.1502ZM29.9447 24.0202C29.9447 19.7802 29.9547 15.5402 29.9447 11.2902C29.9347 8.79019 29.4347 6.41019 28.3647 4.14019C27.9947 3.36019 27.4447 2.80019 26.5447 2.80019C25.6747 2.80019 25.1347 3.34019 24.7747 4.11019C23.7647 6.30019 23.2447 8.61019 23.2347 11.0202C23.2247 19.7002 23.2247 28.3902 23.2347 37.0702C23.2347 37.2902 23.2347 37.5002 23.2747 37.7102C24.0147 41.5802 24.7647 45.4402 25.5147 49.3102C25.6547 50.0202 25.9947 50.3402 26.5847 50.3402C27.1847 50.3402 27.5247 50.0302 27.6647 49.3202C28.2347 46.4002 28.7447 43.4702 29.3747 40.5602C29.8447 38.4102 29.9947 36.2602 29.9647 34.0802C29.9147 30.7402 29.9447 27.3802 29.9447 24.0202ZM21.3847 25.4502C21.3847 24.6402 21.3847 23.8202 21.3847 23.0102C21.3847 22.2202 21.3847 22.2102 20.7047 22.5802C17.0247 24.5702 13.3347 26.5702 9.6547 28.5602C7.5347 29.7002 5.4147 30.8602 3.2947 32.0002C2.9547 32.1802 2.8147 32.4002 2.8247 32.7802C2.8547 33.4902 2.8247 34.2102 2.8347 34.9202C2.8347 35.4702 2.8747 35.4902 3.3647 35.3102C4.2347 34.9902 5.1047 34.6602 5.9847 34.3302C10.9347 32.4702 15.8847 30.6102 20.8347 28.7702C21.2647 28.6102 21.4247 28.3902 21.4047 27.9302C21.3647 27.1102 21.3847 26.2802 21.3847 25.4502ZM31.7847 25.4202C31.7847 26.2802 31.8047 27.1502 31.7747 28.0102C31.7647 28.4102 31.8947 28.6102 32.2747 28.7402C33.6547 29.2302 35.0147 29.7602 36.3847 30.2702C40.8347 31.9402 45.2847 33.6102 49.7347 35.2702C50.3147 35.4902 50.3247 35.4802 50.3347 34.8302C50.3347 34.3502 50.2747 33.8602 50.3447 33.3902C50.4747 32.5202 50.1047 32.0802 49.3347 31.6702C45.8347 29.8302 42.3647 27.9202 38.8847 26.0302C36.7047 24.8502 34.5247 23.6702 32.3447 22.5002C31.7847 22.2002 31.7747 22.2002 31.7747 22.8602C31.7847 23.7302 31.7847 24.5702 31.7847 25.4202ZM15.6047 49.1502C15.6047 49.4302 15.6147 49.6102 15.6047 49.8002C15.5947 50.0902 15.6847 50.2202 16.0147 50.1602C18.4047 49.7502 20.7947 49.3502 23.1947 48.9602C23.5047 48.9102 23.5647 48.8002 23.5047 48.4902C23.2447 47.2202 22.9947 45.9502 22.7747 44.6702C22.6947 44.2402 22.5547 44.2102 22.1947 44.4302C20.2447 45.6202 18.3047 46.8002 16.3347 47.9402C15.7847 48.2602 15.4347 48.5902 15.6047 49.1502ZM37.5647 49.3002C37.5347 48.8702 37.6747 48.4302 37.1547 48.1302C35.0747 46.9202 33.0047 45.6702 30.9547 44.4102C30.5847 44.1802 30.4847 44.2902 30.4147 44.6602C30.1947 45.8402 29.9647 47.0102 29.7347 48.1802C29.5947 48.9002 29.5947 48.8902 30.3147 49.0102C32.4247 49.3602 34.5447 49.7002 36.6547 50.0602C37.7547 50.2502 37.5447 50.2402 37.5647 49.3002ZM13.8547 23.4302C13.8447 24.2202 13.8647 24.2302 14.4347 23.9202C14.6947 23.7802 14.9547 23.6302 15.2247 23.4902C15.4047 23.3902 15.5247 23.2702 15.4447 23.0502C15.3247 22.7202 15.1147 22.4702 14.7347 22.4402C14.3647 22.4202 14.0847 22.5902 13.9547 22.9402C13.8747 23.1402 13.8647 23.3602 13.8547 23.4302ZM39.3147 23.4702C39.3047 23.4302 39.2947 23.2502 39.2547 23.0702C39.1547 22.6402 38.8647 22.4202 38.4247 22.4402C38.0447 22.4602 37.8247 22.7202 37.7247 23.0502C37.6147 23.4002 37.9347 23.4502 38.1347 23.5702C38.3447 23.7002 38.5647 23.8202 38.7847 23.9302C39.3047 24.2202 39.3247 24.2102 39.3147 23.4702ZM6.2347 27.6202C6.2247 28.3002 6.2647 28.3302 6.8147 28.0402C7.0647 27.9102 7.3047 27.7702 7.5547 27.6302C7.8247 27.4802 7.8147 27.2802 7.6647 27.0502C7.4347 26.7002 7.1047 26.6402 6.7447 26.7502C6.3147 26.8902 6.2047 27.2502 6.2347 27.6202ZM46.9347 27.6402C46.9647 27.2802 46.8847 26.9102 46.4547 26.7602C46.1447 26.6502 45.8247 26.6702 45.5847 26.9502C45.3547 27.2202 45.2847 27.4702 45.6747 27.6702C45.9147 27.7902 46.1347 27.9202 46.3747 28.0502C46.9047 28.3202 46.9347 28.3002 46.9347 27.6402Z" fill="#D6B77A"/>
<path d="M26.5503 6.12012C27.3903 6.20012 28.1003 6.52012 28.4603 7.34012C28.7003 7.89012 28.8603 8.47012 29.0503 9.03012C29.1203 9.24012 29.0803 9.39012 28.8603 9.46012C28.8303 9.47012 28.8003 9.48012 28.7703 9.49012C27.4803 10.0101 27.4903 10.0101 27.0303 8.68012C26.9403 8.42012 26.9703 7.98012 26.5903 8.00012C26.2303 8.01012 26.2403 8.44012 26.1503 8.70012C25.7003 9.98012 25.7103 9.98012 24.4503 9.51012C24.1303 9.39012 24.0403 9.24012 24.1603 8.92012C24.3503 8.42012 24.4903 7.91012 24.6903 7.42012C25.0203 6.59012 25.6903 6.22012 26.5503 6.12012Z" fill="#D6B77A"/>
</svg>
